<?xml version="1.0" standalone="no"?>
<!DOCTYPE svg PUBLIC "-//W3C//DTD SVG 20010904//EN"
 "http://www.w3.org/TR/2001/REC-SVG-20010904/DTD/svg10.dtd">
<svg version="1.0" xmlns="http://www.w3.org/2000/svg"
 width="1024.000000pt" height="1024.000000pt" viewBox="0 0 1024.000000 1024.000000"
 preserveAspectRatio="xMidYMid meet">
<metadata>
Created by potrace 1.11, written by Peter Selinger 2001-2013
</metadata>
<g transform="translate(0.000000,1024.000000) scale(0.100000,-0.100000)"
fill="#000000" stroke="none">
<path d="M4780 9699 c-1277 -97 -2442 -712 -3245 -1712 -484 -602 -812 -1332
-940 -2091 -50 -294 -59 -420 -59 -776 0 -356 9 -482 59 -776 198 -1171 859
-2232 1831 -2940 372 -270 854 -515 1289 -654 911 -290 1899 -290 2810 0 435
139 917 384 1289 654 972 708 1633 1769 1831 2940 50 294 59 420 59 776 0 356
-9 482 -59 776 -128 759 -456 1489 -940 2091 -751 935 -1826 1539 -3005 1687
-279 35 -654 45 -920 25z m-2011 -4090 c30 -11 37 -23 25 -52 -4 -12 -11 -12
-42 -1 -127 45 -235 -24 -249 -159 -16 -157 90 -253 235 -214 52 14 54 14 62
-7 11 -29 2 -36 -73 -49 -96 -16 -166 2 -221 56 -49 50 -66 99 -66 193 0 111
52 198 140 233 34 13 150 13 189 0z m453 -24 c61 -43 90 -101 96 -190 6 -98
-15 -160 -73 -213 -83 -78 -212 -82 -299 -10 -105 86 -115 285 -20 382 53 55
86 67 176 64 67 -3 82 -7 120 -33z m1077 7 c55 -27 76 -64 76 -132 0 -48 -4
-63 -25 -85 -40 -43 -78 -57 -167 -63 l-83 -5 0 -88 0 -89 -30 0 -30 0 0 239
0 240 43 4 c72 8 180 -3 216 -21z m2358 7 c139 -67 166 -308 46 -421 -83 -79
-229 -75 -315 9 -46 44 -68 107 -68 187 1 107 44 186 122 225 58 29 156 29
215 0z m546 10 c39 -11 40 -12 31 -46 -6 -21 -8 -21 -46 -7 -132 46 -241 -21
-255 -159 -15 -143 83 -245 210 -220 l42 9 3 87 3 87 29 0 30 0 0 -109 c0
-124 8 -115 -109 -127 -88 -10 -155 10 -205 60 -49 49 -66 98 -66 192 0 111
52 198 140 233 33 13 146 13 193 0z m499 -24 c61 -43 90 -101 96 -190 6 -98
-15 -160 -73 -213 -83 -78 -212 -82 -299 -10 -105 86 -115 285 -20 382 53 55
86 67 176 64 67 -3 82 -7 120 -33z m-4110 -142 l80 -166 81 167 c80 166 81
167 111 164 l31 -3 11 -135 c6 -74 14 -181 18 -237 l6 -103 -29 0 -29 0 -6
108 c-4 59 -10 143 -14 187 l-8 80 -50 -100 c-27 -55 -60 -124 -72 -152 -20
-47 -26 -53 -52 -53 -17 0 -30 4 -30 10 0 21 -134 290 -141 283 -4 -4 -11 -88
-15 -185 l-7 -178 -28 0 c-29 0 -29 1 -29 58 0 63 16 301 26 375 6 44 8 47 36
47 28 0 33 -6 110 -167z m1074 110 c29 -66 148 -366 158 -400 7 -21 4 -23 -26
-23 -32 0 -35 3 -55 58 l-20 57 -115 3 -115 3 -23 -61 c-20 -54 -25 -60 -51
-60 -16 0 -29 4 -29 10 0 11 75 208 137 358 46 111 47 112 80 112 31 0 35 -4
59 -57z m320 25 c44 -47 123 -151 185 -243 l54 -80 3 178 2 177 30 0 30 0 0
-240 0 -240 -24 0 c-20 0 -37 19 -91 103 -37 56 -97 142 -134 190 l-66 89 -3
-191 -2 -191 -30 0 -30 0 0 240 0 240 23 0 c13 0 36 -14 53 -32z m475 -10 c35
-69 101 -178 108 -178 6 0 91 145 112 193 10 22 19 27 46 27 18 0 33 -4 33 -8
0 -5 -36 -68 -80 -141 l-80 -134 0 -98 0 -99 -30 0 -30 0 0 93 c0 87 -2 96
-31 143 -40 62 -139 233 -139 239 0 3 16 5 35 5 31 0 37 -5 56 -42z m601 -170
l3 -213 113 -3 c112 -3 112 -3 112 -27 l0 -25 -145 0 -145 0 0 240 0 240 30 0
30 0 2 -212z m-1162 -539 c0 -5 -7 -9 -15 -9 -15 0 -20 12 -9 23 8 8 24 -1 24
-14z m-645 -69 c-3 -5 -20 -10 -36 -10 -41 0 -66 -15 -84 -50 -37 -71 -9 -126
59 -117 37 5 39 4 22 -9 -28 -20 -73 -17 -96 6 -39 39 -18 138 38 172 29 19
107 25 97 8z m174 -6 c21 -15 23 -23 19 -72 -4 -48 -10 -60 -41 -89 -40 -36
-71 -41 -105 -17 -17 12 -22 25 -22 60 0 100 82 165 149 118z m197 6 c7 -7 21
-7 42 1 40 14 78 5 93 -22 8 -16 7 -39 -6 -95 -9 -41 -21 -74 -26 -74 -12 0
-12 2 7 73 19 72 9 107 -30 107 -38 0 -56 -10 -56 -32 0 -35 -32 -148 -42
-148 -6 0 -8 6 -5 14 3 8 11 41 18 75 14 73 4 94 -45 89 -30 -3 -32 -6 -53
-87 -21 -82 -29 -99 -37 -90 -9 9 37 174 52 187 19 15 74 16 88 2z m225 -95
c-13 -52 -27 -95 -32 -95 -12 0 -12 -1 11 93 26 102 29 111 37 104 3 -4 -4
-49 -16 -102z m208 89 c21 -15 23 -22 18 -63 -9 -66 -26 -121 -39 -121 -5 0
-8 7 -5 15 4 8 12 41 18 74 16 74 4 94 -50 89 l-35 -3 -21 -84 c-11 -47 -26
-86 -32 -88 -11 -4 -9 9 28 149 5 21 17 39 27 41 36 10 68 6 91 -9z m241 -1
c-1 -43 -49 -215 -65 -233 -21 -24 -66 -34 -111 -25 -48 9 -33 24 18 18 34 -4
49 0 71 17 39 31 36 54 -7 46 -49 -9 -81 19 -80 71 2 51 17 79 57 103 42 26
117 27 117 3z m260 8 c0 -6 -19 -11 -41 -13 -27 -2 -46 -9 -53 -21 -9 -15 -4
-24 34 -57 44 -38 45 -39 30 -67 -18 -32 -56 -49 -94 -39 -38 9 -32 26 8 19
59 -9 98 29 60 59 -70 56 -77 75 -44 108 21 21 100 29 100 11z m178 -7 c17
-12 22 -25 22 -60 0 -56 -22 -99 -60 -119 -37 -19 -60 -19 -89 1 -21 15 -23
23 -19 72 4 48 10 60 41 89 40 36 71 41 105 17z m210 0 c17 -12 22 -25 22 -60
0 -56 -22 -99 -60 -119 -37 -19 -60 -19 -89 1 -21 15 -23 23 -19 72 4 48 10
60 41 89 40 36 71 41 105 17z m214 -1 c10 -9 18 -30 18 -47 0 -44 -24 -129
-37 -133 -8 -3 -7 12 3 49 26 98 16 128 -43 128 -35 0 -37 -3 -64 -127 -7 -29
-16 -53 -21 -53 -12 0 -10 11 13 105 14 57 26 85 38 88 37 10 75 6 93 -10z"/>
<path d="M3025 5556 c-62 -27 -95 -93 -95 -189 0 -117 62 -191 160 -191 117 0
189 116 159 255 -24 110 -127 168 -224 125z"/>
<path d="M4102 5464 l3 -99 45 -3 c58 -4 127 15 145 42 25 34 19 99 -11 127
-22 20 -38 24 -105 28 l-80 3 3 -98z"/>
<path d="M6474 5552 c-45 -29 -71 -67 -83 -122 -21 -96 12 -195 78 -234 45
-26 117 -26 161 0 103 60 108 275 8 348 -40 28 -124 33 -164 8z"/>
<path d="M7505 5556 c-62 -27 -95 -93 -95 -189 0 -117 62 -191 160 -191 117 0
189 116 159 255 -24 110 -127 168 -224 125z"/>
<path d="M4562 5437 c-23 -58 -42 -112 -42 -121 0 -13 13 -16 84 -16 47 0 87
3 89 8 5 7 -59 179 -79 215 -9 15 -18 1 -52 -86z"/>
<path d="M4330 4755 c-19 -20 -24 -37 -25 -77 0 -58 16 -75 59 -64 50 12 88
120 54 154 -20 20 -63 14 -88 -13z"/>
<path d="M5210 4772 c-22 -10 -42 -32 -54 -56 -17 -35 -18 -42 -5 -65 17 -30
55 -38 82 -19 19 14 51 122 43 144 -7 19 -24 18 -66 -4z"/>
<path d="M5657 4769 c-39 -23 -63 -119 -35 -147 20 -20 63 -14 87 12 28 29 40
108 21 131 -14 17 -47 19 -73 4z"/>
<path d="M5867 4769 c-39 -23 -63 -119 -35 -147 20 -20 63 -14 87 12 28 29 40
108 21 131 -14 17 -47 19 -73 4z"/>
</g>
</svg>
